<svg width="87" height="66" viewBox="0 0 87 66" fill="none" xmlns="http://www.w3.org/2000/svg">
<path opacity="0.5" fill-rule="evenodd" clip-rule="evenodd" d="M28.951 9.42857V0C19.2516 2.12356 12.0017 6.92274 7.20101 14.3977C2.40031 21.8726 0 32.0231 0 44.8494V66H32.625V37.7143H18.6639V34.7838C18.6639 27.9034 19.5211 22.361 21.2356 18.1564C22.9502 13.9517 25.5219 11.0425 28.951 9.42857ZM83.326 9.42857V0C73.6266 2.12356 66.3767 6.92274 61.576 14.3977C56.7753 21.8726 54.375 32.0231 54.375 44.8494V66H87V37.7143H73.0388V34.7838C73.0388 27.9034 73.8961 22.361 75.6106 18.1564C77.3252 13.9517 79.8969 11.0425 83.326 9.42857Z" fill="#45A2A9"/>
</svg>
