<svg width="87" height="66" viewBox="0 0 87 66" fill="none" xmlns="http://www.w3.org/2000/svg">
<path opacity="0.5" fill-rule="evenodd" clip-rule="evenodd" d="M58.049 56.5714L58.049 66C67.7484 63.8764 74.9983 59.0773 79.799 51.6023C84.5997 44.1274 87 33.9769 87 21.1506L87 0L54.375 2.85217e-06L54.375 28.2857L68.3361 28.2857L68.3361 31.2162C68.3361 38.0966 67.4789 43.639 65.7644 47.8436C64.0498 52.0483 61.4781 54.9575 58.049 56.5714ZM3.67399 56.5714L3.67399 66C13.3734 63.8764 20.6233 59.0773 25.424 51.6023C30.2247 44.1274 32.625 33.9769 32.625 21.1506L32.625 4.75361e-06L-5.7699e-06 7.60578e-06L-3.29709e-06 28.2857L13.9611 28.2857L13.9611 31.2162C13.9611 38.0966 13.1039 43.639 11.3894 47.8436C9.67482 52.0483 7.10306 54.9575 3.67399 56.5714Z" fill="#45A2A9"/>
</svg>
